<svg width="28" height="28" viewBox="0 0 28 28" fill="none" xmlns="http://www.w3.org/2000/svg">
<g filter="url(#filter0_d_1_264)">
<path d="M14 0C11.2833 0 10.9442 0.0125 9.8775 0.06C8.8125 0.11 8.0875 0.2775 7.45 0.525C6.7925 0.78 6.23417 1.1225 5.67833 1.67833C5.1225 2.23417 4.77917 2.79167 4.525 3.45C4.2775 4.0875 4.10917 4.8125 4.06 5.8775C4.01 6.94417 4 7.28333 4 10C4 12.7167 4.0125 13.0558 4.06 14.1225C4.11 15.1867 4.2775 15.9125 4.525 16.55C4.78 17.2067 5.1225 17.7658 5.67833 18.3217C6.23417 18.8767 6.79167 19.2208 7.45 19.475C8.08833 19.7217 8.81333 19.8908 9.8775 19.94C10.9442 19.99 11.2833 20 14 20C16.7167 20 17.0558 19.9875 18.1225 19.94C19.1867 19.89 19.9125 19.7217 20.55 19.475C21.2067 19.22 21.7658 18.8767 22.3217 18.3217C22.8767 17.7658 23.2208 17.2092 23.475 16.55C23.7217 15.9125 23.8908 15.1867 23.94 14.1225C23.99 13.0558 24 12.7167 24 10C24 7.28333 23.9875 6.94417 23.94 5.8775C23.89 4.81333 23.7217 4.08667 23.475 3.45C23.22 2.7925 22.8767 2.23417 22.3217 1.67833C21.7658 1.1225 21.2092 0.779167 20.55 0.525C19.9125 0.2775 19.1867 0.109167 18.1225 0.06C17.0558 0.01 16.7167 0 14 0ZM14 1.8C16.6692 1.8 16.9875 1.81333 18.0417 1.85917C19.0167 1.905 19.5458 2.06667 19.8975 2.205C20.3658 2.38583 20.6975 2.6025 21.0492 2.95167C21.3983 3.30167 21.615 3.63417 21.7958 4.1025C21.9325 4.45417 22.0958 4.98333 22.14 5.95833C22.1875 7.01333 22.1983 7.33 22.1983 10C22.1983 12.67 22.1858 12.9875 22.1367 14.0417C22.0858 15.0167 21.9233 15.5458 21.7858 15.8975C21.5992 16.3658 21.3867 16.6975 21.0367 17.0492C20.6875 17.3983 20.35 17.615 19.8867 17.7958C19.5367 17.9325 18.9992 18.0958 18.0242 18.14C16.9625 18.1875 16.65 18.1983 13.975 18.1983C11.2992 18.1983 10.9867 18.1858 9.92583 18.1367C8.95 18.0858 8.4125 17.9233 8.0625 17.7858C7.58833 17.5992 7.2625 17.3867 6.91333 17.0367C6.5625 16.6875 6.33833 16.35 6.16333 15.8867C6.02583 15.5367 5.86417 14.9992 5.81333 14.0242C5.77583 12.9742 5.7625 12.65 5.7625 9.9875C5.7625 7.32417 5.77583 6.99917 5.81333 5.93667C5.86417 4.96167 6.02583 4.425 6.16333 4.075C6.33833 3.6 6.5625 3.275 6.91333 2.92417C7.2625 2.575 7.58833 2.35 8.0625 2.17583C8.4125 2.0375 8.93833 1.875 9.91333 1.825C10.9758 1.7875 11.2883 1.775 13.9625 1.775L14 1.8ZM14 4.865C11.1625 4.865 8.865 7.165 8.865 10C8.865 12.8375 11.165 15.135 14 15.135C16.8375 15.135 19.135 12.835 19.135 10C19.135 7.1625 16.835 4.865 14 4.865ZM14 13.3333C12.1583 13.3333 10.6667 11.8417 10.6667 10C10.6667 8.15833 12.1583 6.66667 14 6.66667C15.8417 6.66667 17.3333 8.15833 17.3333 10C17.3333 11.8417 15.8417 13.3333 14 13.3333ZM20.5383 4.6625C20.5383 5.325 20 5.8625 19.3383 5.8625C18.6758 5.8625 18.1383 5.32417 18.1383 4.6625C18.1383 4.00083 18.6767 3.46333 19.3383 3.46333C19.9992 3.4625 20.5383 4.00083 20.5383 4.6625Z" fill="white"/>
</g>
<defs>
<filter id="filter0_d_1_264" x="0" y="0" width="28" height="28" filterUnits="userSpaceOnUse" color-interpolation-filters="sRGB">
<feFlood flood-opacity="0" result="BackgroundImageFix"/>
<feColorMatrix in="SourceAlpha" type="matrix" values="0 0 0 0 0 0 0 0 0 0 0 0 0 0 0 0 0 0 127 0" result="hardAlpha"/>
<feOffset dy="4"/>
<feGaussianBlur stdDeviation="2"/>
<feComposite in2="hardAlpha" operator="out"/>
<feColorMatrix type="matrix" values="0 0 0 0 0 0 0 0 0 0 0 0 0 0 0 0 0 0 0.25 0"/>
<feBlend mode="normal" in2="BackgroundImageFix" result="effect1_dropShadow_1_264"/>
<feBlend mode="normal" in="SourceGraphic" in2="effect1_dropShadow_1_264" result="shape"/>
</filter>
</defs>
</svg>
